<svg width="374" height="547" viewBox="0 0 374 547" fill="none" xmlns="http://www.w3.org/2000/svg">
<path d="M11.0184 153C21.703 70.7412 52.887 34.9759 54.5184 34.7347V7.00028C56.6256 2.05911 58.9818 1.05013 64.0184 0.500275C68.198 0.540348 70.5662 2.39074 75.0184 6.00024C77.3726 7.27581 85.11 22.4546 85.5064 23.0048C85.5087 22.9834 85.5126 22.9815 85.5184 23.0002C85.5263 23.0255 85.522 23.0264 85.5064 23.0048C85.4299 23.7453 87.4577 47.865 87.5184 48.5002C87.5809 49.1537 88.562 53.6984 86.5184 64.0002C84.4748 74.3021 85.5278 106.214 86.5184 103C87.8457 110.681 89.2228 114.653 94.0184 120.5C104.793 128.012 111.236 131.016 123.018 135.5C152.168 141.104 168.6 142.686 198.018 143.5C220.58 142.586 232.376 141.597 252.518 136.5C288.971 125.127 309.683 121.514 347.018 119C353.986 118.952 357.685 120.066 364.018 123.5C369.543 127.319 371.408 129.992 373.018 135.5C374.536 144.889 368.456 147.724 364.018 148.5C341.354 150.933 333.459 152.487 311.439 156.819L310.518 157C295.319 160.721 286.888 162.726 272.018 168C245.771 176.442 231.417 184.138 206.018 195.5C119.701 231.29 95.6817 244.434 93.5184 258.5L112.518 546.5H0.518433L12.0184 229C10.3795 204.166 9.20821 190.844 11.0184 153Z" fill="#39446E"/>
<path d="M133.018 101.5C130.566 105.718 120.756 107.11 114.018 114.5C112.178 115.936 111.464 117.207 112.518 120C143.094 132.851 143.903 129.585 170.018 135C194.745 136.468 206.947 135.65 231.018 134.5C239.879 131.737 244.342 127.47 255.018 120.5C267.624 113.69 273.474 107.377 283.778 96.2602L284.018 96.0003C294.361 84.7714 300.484 79.1585 312.518 71.5003L314.018 69.0002L314.518 64.0003C312.889 58.9461 311.767 57.4818 309.518 56.5002C306.144 55.5367 304.667 55.3446 302.048 55.0041L302.018 55.0002L297.518 55.5002L293.018 56.5002C280.522 62.9439 277.515 66.0566 265.018 72.5003C248.945 83.4353 236.351 94.5888 216.018 115C216.018 115 211.376 117.766 208.518 117.5C205.661 117.235 204.823 115.576 205.018 113C219.386 85.6798 227.851 70.7402 245.018 46.0003C248.759 39.0991 249.602 36.5016 248.018 35.0003C245.069 32.1832 243.231 31.036 239.518 30.0003C234.137 29.2804 230.843 29.8671 224.518 32.5003C214.394 42.0349 208.265 48.7193 195.518 66.0003C175.318 95.2036 172.625 110.42 167.518 109C166.723 93.1269 166.479 79.951 170.018 60.5003L174.018 46.0003C174.96 40.5594 175.406 37.4391 174.018 30.0003C172.037 28.296 170.747 27.5076 168.018 26.5003C164.503 25.8985 162.743 26.2075 160.018 28.0003C152.504 38.3386 148.491 43.3842 144.018 57.5002C140.93 61.539 135.471 97.2825 133.018 101.5Z" fill="#39446E"/>
<path d="M54.5184 7.00028C56.6256 2.05911 58.9818 1.05013 64.0184 0.500275C68.198 0.540348 70.5662 2.39074 75.0184 6.00024C77.465 7.32588 85.7257 23.6677 85.5184 23.0002C85.3111 22.3328 87.456 47.8467 87.5184 48.5002C87.5809 49.1537 88.562 53.6984 86.5184 64.0002C84.4748 74.3021 85.5278 106.214 86.5184 103C87.8457 110.681 89.2228 114.653 94.0184 120.5C104.793 128.012 111.236 131.016 123.018 135.5C152.168 141.103 168.6 142.686 198.018 143.5C220.58 142.586 232.376 141.597 252.518 136.5C288.971 125.127 309.683 121.514 347.018 119C353.986 118.952 357.685 120.066 364.018 123.5C369.543 127.319 371.408 129.992 373.018 135.5C374.536 144.889 368.456 147.724 364.018 148.5C341.041 150.967 333.244 152.529 310.518 157C295.319 160.721 286.888 162.726 272.018 168C245.771 176.442 231.417 184.138 206.018 195.5C119.701 231.29 95.6817 244.434 93.5184 258.5L112.518 546.5H0.518433L12.0184 229C10.3795 204.166 9.20821 190.844 11.0184 153C22.2755 66.3334 56.2878 31.2765 54.5184 35.0003V7.00028ZM114.018 114.5C120.756 107.11 130.566 105.718 133.018 101.5C135.471 97.2825 140.93 61.539 144.018 57.5002C148.491 43.3842 152.504 38.3386 160.018 28.0003C162.743 26.2075 164.503 25.8985 168.018 26.5003C170.747 27.5076 172.037 28.296 174.018 30.0003C175.406 37.4391 174.96 40.5594 174.018 46.0003L170.018 60.5003C166.479 79.951 166.723 93.1269 167.518 109C172.625 110.42 175.318 95.2036 195.518 66.0003C208.265 48.7193 214.394 42.0349 224.518 32.5003C230.843 29.8671 234.137 29.2804 239.518 30.0003C243.231 31.036 245.069 32.1832 248.018 35.0003C249.602 36.5016 248.759 39.0991 245.018 46.0003C227.851 70.7402 219.386 85.6798 205.018 113C204.823 115.576 205.661 117.235 208.518 117.5C211.376 117.766 216.018 115 216.018 115C236.351 94.5888 248.945 83.4353 265.018 72.5003C277.515 66.0566 280.522 62.9439 293.018 56.5002L297.518 55.5002C299.276 55.305 300.261 55.1955 302.018 55.0002C304.656 55.3432 306.131 55.533 309.518 56.5002C311.767 57.4818 312.889 58.9461 314.518 64.0003L314.018 69.0002L312.518 71.5003C300.484 79.1585 294.361 84.7714 284.018 96.0003C273.565 107.279 267.722 113.637 255.018 120.5C244.342 127.47 239.879 131.737 231.018 134.5C206.947 135.65 194.745 136.468 170.018 135C143.903 129.585 143.094 132.851 112.518 120C111.464 117.207 112.178 115.936 114.018 114.5Z" stroke="#39446E"/>
</svg>
